<?xml version="1.0" encoding="utf-8"?>
<!-- Generator: Adobe Illustrator 18.0.0, SVG Export Plug-In . SVG Version: 6.00 Build 0)  -->
<!DOCTYPE svg PUBLIC "-//W3C//DTD SVG 1.1//EN" "http://www.w3.org/Graphics/SVG/1.1/DTD/svg11.dtd">
<svg version="1.1" id="Vrstva_1" xmlns="http://www.w3.org/2000/svg" xmlns:xlink="http://www.w3.org/1999/xlink" x="0px" y="0px"
	 viewBox="0 0 410.7 271.5" enable-background="new 0 0 410.7 271.5" xml:space="preserve">
<g>
	<ellipse fill="#010181" cx="205.4" cy="135.9" rx="201.7" ry="132.1"/>
	<g>
		<path fill="#FFFFFF" d="M30.8,154.4l-4.3,1.7l-0.1-0.4c1-0.6,1.7-1.4,2.1-2.3s0.4-1.9,0.1-2.7c-0.2-0.7-0.6-1.1-1.1-1.4
			c-0.5-0.3-1-0.3-1.4-0.1c-0.3,0.1-0.5,0.3-0.7,0.5c-0.2,0.3-0.4,0.7-0.6,1.2c-0.1,0.4-0.2,1.2-0.4,2.5c-0.2,1.8-0.5,3.1-1,3.9
			c-0.5,0.8-1.1,1.3-2,1.6c-1.1,0.4-2.2,0.3-3.3-0.3c-1.1-0.6-1.9-1.5-2.4-2.8c-0.1-0.4-0.2-0.8-0.3-1.2c0-0.4-0.1-0.9,0-1.5
			c0-0.4,0-0.6-0.1-0.8c-0.1-0.2-0.2-0.3-0.4-0.5c-0.2-0.1-0.4-0.2-0.8-0.2l-0.1-0.4l4.9-1.8l0.1,0.4c-1.3,0.8-2.1,1.7-2.6,2.8
			c-0.4,1.1-0.5,2.1-0.1,3c0.3,0.7,0.7,1.2,1.2,1.5c0.5,0.3,1.1,0.3,1.6,0.1c0.3-0.1,0.6-0.3,0.8-0.6c0.2-0.3,0.4-0.6,0.6-1
			s0.3-1.1,0.4-2.1c0.2-1.4,0.3-2.4,0.6-3.1c0.2-0.7,0.5-1.2,0.9-1.7s0.9-0.8,1.5-1c1-0.4,2.1-0.3,3.1,0.2c1,0.5,1.7,1.3,2.1,2.5
			c0.2,0.4,0.3,0.9,0.3,1.3c0,0.3,0,0.7,0,1.3s0,0.9,0,1c0.1,0.2,0.2,0.3,0.3,0.3c0.1,0.1,0.4,0.1,0.8,0L30.8,154.4z"/>
		<path fill="#FFFFFF" d="M28.6,171.3L24,173l-5.5-11l0.3-0.2l0.2,0.4c0.2,0.4,0.4,0.6,0.6,0.8c0.2,0.1,0.4,0.2,0.6,0.1
			c0.2,0,0.6-0.2,1.2-0.5l8.2-4.1c0.6-0.3,1-0.6,1.1-0.7c0.1-0.1,0.2-0.4,0.2-0.6s-0.1-0.6-0.2-0.9l-0.2-0.4l0.3-0.2l3.3,6.6
			l-0.3,0.2l-0.3-0.5c-0.2-0.4-0.4-0.6-0.6-0.8c-0.2-0.1-0.4-0.2-0.6-0.2c-0.2,0-0.6,0.2-1.2,0.5l-7.9,4c-0.6,0.3-1,0.6-1.2,0.7
			c-0.1,0.2-0.2,0.4-0.2,0.6c0,0.2,0.2,0.6,0.5,1.2l0.5,1c0.3,0.7,0.7,1.2,1.2,1.5c0.5,0.3,1,0.5,1.7,0.6c0.7,0.1,1.6,0,2.7-0.2
			L28.6,171.3z"/>
		<path fill="#FFFFFF" d="M41.2,173.9c1.3,1.8,1.8,3.7,1.4,5.6c-0.4,1.9-1.4,3.4-3.1,4.6c-1.5,1-3,1.4-4.7,1.3
			c-2.2-0.2-4-1.3-5.4-3.3c-1.4-2.1-1.8-4.2-1.1-6.2c0.5-1.6,1.5-3,3.1-4c1.7-1.1,3.5-1.5,5.5-1.1C38.7,171.1,40.2,172.2,41.2,173.9
			z M40.8,174.4c-0.7-1.1-1.8-1.5-3.2-1.3c-1.2,0.1-2.6,0.8-4.3,1.9c-2,1.3-3.2,2.6-3.7,4c-0.3,0.9-0.2,1.8,0.4,2.7
			c0.4,0.6,0.9,1,1.4,1.2c0.7,0.3,1.5,0.3,2.5,0c1-0.3,2.1-0.8,3.4-1.7c1.5-1,2.6-1.9,3.2-2.7s0.9-1.5,0.9-2.2
			C41.3,175.6,41.1,175,40.8,174.4z"/>
		<path fill="#FFFFFF" d="M54.2,190.8l-0.3,0.2c-0.4-0.3-0.9-0.5-1.5-0.5c-0.4,0-1.3,0.2-2.7,0.6l-11.2,3.2l-0.2-0.3l5.4-10.8
			c0.7-1.3,1-2.1,1.1-2.4c0.1-0.3-0.1-0.7-0.4-1.1l0.3-0.2l4.3,5.1l-0.3,0.2l-0.1-0.2c-0.4-0.5-0.7-0.7-1-0.8
			c-0.2-0.1-0.3,0-0.5,0.1c-0.1,0.1-0.2,0.2-0.3,0.3c-0.1,0.1-0.3,0.6-0.7,1.3l-3.4,6.7l6.5-1.9c0.8-0.2,1.3-0.4,1.5-0.5
			c0.2-0.1,0.4-0.2,0.6-0.3c0.2-0.1,0.3-0.3,0.3-0.5c0-0.2,0-0.4,0-0.6c-0.1-0.3-0.3-0.6-0.6-1l0.3-0.2L54.2,190.8z"/>
		<path fill="#FFFFFF" d="M57.9,195.4l-3.9,4.1l0.2,0.2c0.6,0.6,1.3,0.8,2,0.7c0.7-0.1,1.4-0.5,2.2-1.3l0.3,0.3l-5,5.3l-0.3-0.3
			c0.5-0.6,0.8-1.2,1-1.8c0.2-0.5,0.2-1,0-1.4c-0.1-0.4-0.4-0.8-0.9-1.2l-2.7,2.8c-0.5,0.6-0.8,0.9-0.9,1.1c-0.1,0.2-0.1,0.4,0,0.6
			c0.1,0.2,0.2,0.4,0.5,0.7l0.6,0.6c0.9,0.9,1.9,1.4,2.9,1.5c1,0.1,2-0.2,3.1-0.8l0.3,0.3l-3.5,2.8l-8.7-8.3l0.3-0.3l0.3,0.3
			c0.3,0.3,0.6,0.4,0.9,0.5c0.2,0.1,0.4,0,0.6-0.1c0.2-0.1,0.5-0.4,1-0.9l6.3-6.6c0.4-0.5,0.7-0.7,0.8-0.9c0.1-0.2,0.2-0.4,0.1-0.7
			c-0.1-0.3-0.2-0.6-0.6-0.9l-0.3-0.3l0.3-0.3l8.4,8l-2.8,3l-0.3-0.3c0.5-0.9,0.8-1.6,0.9-2.1c0-0.6-0.1-1.1-0.4-1.7
			c-0.2-0.4-0.7-0.9-1.4-1.6L57.9,195.4z"/>
		<path fill="#FFFFFF" d="M68,203.3l0.1,11l3.7-4.7c0.5-0.7,0.8-1.2,0.8-1.6c0-0.5-0.3-1-1-1.5l0.2-0.3l3.6,2.8l-0.2,0.3
			c-0.5-0.3-0.9-0.5-1.1-0.5c-0.2,0-0.5,0-0.7,0.2s-0.6,0.5-1,1l-7.1,9.2L65,219l-0.4-14.9l-5.4,7c-0.5,0.6-0.7,1.2-0.6,1.6
			c0.1,0.4,0.4,0.8,0.7,1.1l0.3,0.2l-0.2,0.3l-3.9-3l0.2-0.3c0.6,0.5,1.1,0.7,1.6,0.6c0.4-0.1,0.9-0.4,1.3-1l6-7.8l0-0.5
			c0-0.5-0.1-0.8-0.2-1.1c-0.1-0.2-0.3-0.5-0.7-0.8l0.2-0.3L68,203.3z"/>
		<path fill="#FFFFFF" d="M83.8,214l-2.4,4l-0.4-0.2c0.5-1.1,0.6-2.1,0.3-3.1c-0.3-1-0.8-1.8-1.5-2.3c-0.6-0.4-1.2-0.5-1.7-0.4
			c-0.5,0.1-0.9,0.3-1.2,0.8c-0.2,0.3-0.3,0.5-0.3,0.8c0,0.4,0.1,0.8,0.3,1.3c0.1,0.4,0.6,1.1,1.2,2.2c0.9,1.6,1.5,2.8,1.5,3.7
			c0.1,0.9-0.1,1.7-0.6,2.5c-0.6,1-1.5,1.6-2.8,1.8c-1.2,0.2-2.4-0.1-3.6-0.8c-0.4-0.2-0.7-0.5-1-0.8s-0.6-0.7-1-1.2
			c-0.2-0.3-0.4-0.5-0.6-0.6c-0.1-0.1-0.3-0.1-0.6-0.1s-0.5,0.1-0.7,0.3l-0.3-0.2l2.8-4.4l0.3,0.2c-0.5,1.4-0.7,2.7-0.4,3.8
			c0.3,1.1,0.9,1.9,1.7,2.5c0.6,0.4,1.3,0.6,1.9,0.5c0.6-0.1,1.1-0.4,1.4-0.9c0.2-0.3,0.3-0.6,0.3-0.9c0-0.4,0-0.7-0.2-1.2
			s-0.5-1.1-1-1.9c-0.7-1.2-1.2-2.1-1.4-2.8c-0.2-0.7-0.3-1.3-0.3-1.9c0-0.6,0.2-1.2,0.6-1.7c0.6-0.9,1.5-1.5,2.6-1.7
			c1.1-0.2,2.2,0,3.2,0.7c0.4,0.2,0.7,0.5,1,0.8c0.2,0.2,0.5,0.6,0.7,1c0.3,0.4,0.5,0.7,0.6,0.8c0.1,0.1,0.3,0.1,0.4,0.1
			c0.1,0,0.4-0.2,0.7-0.5L83.8,214z"/>
		<path fill="#FFFFFF" d="M89.6,223.7l1.5,7.7c0.2,1.1,0.5,1.9,0.8,2.4c0.2,0.4,0.5,0.6,0.9,0.8l-0.2,0.3l-6.4-3.4l0.2-0.3
			c0.4,0.2,0.7,0.3,0.9,0.2c0.2,0,0.3-0.1,0.4-0.2c0.1-0.3,0.1-0.9-0.1-1.9l-0.9-5l-0.7,0.1l-1.8,3.4c-0.3,0.6-0.5,1.1-0.5,1.3
			c0,0.2,0.1,0.4,0.2,0.6c0.1,0.2,0.4,0.5,0.9,0.7l-0.2,0.3l-6.2-3.3l0.2-0.3l0.4,0.2c0.4,0.2,0.7,0.3,1,0.3c0.2,0,0.4-0.1,0.6-0.2
			c0.1-0.1,0.4-0.5,0.7-1.1l4.3-8.1c0.3-0.6,0.5-1,0.5-1.2c0-0.2,0-0.4-0.2-0.6c-0.1-0.2-0.4-0.4-0.7-0.6l-0.4-0.2l0.2-0.3l6.1,3.2
			l-0.2,0.3c-0.4-0.2-0.8-0.3-1-0.3c-0.2,0-0.4,0.1-0.6,0.2c-0.2,0.1-0.4,0.5-0.7,1.1l-2,3.8l6.5-1.3c0.9-0.2,1.4-0.4,1.6-0.7
			c0.1-0.2,0.1-0.5-0.1-0.8c-0.1-0.1-0.4-0.4-0.9-0.7l0.2-0.3l4.8,2.5l-0.2,0.3c-0.4-0.2-0.8-0.3-1.1-0.3c-0.3,0-1.1,0.1-2.4,0.4
			L89.6,223.7z"/>
		<path fill="#FFFFFF" d="M103.4,235.1l-4.5-1.9l-1.1,1c-0.3,0.3-0.6,0.7-0.7,0.9c-0.1,0.4-0.1,0.7,0.1,1c0.1,0.2,0.5,0.4,1.2,0.8
			l-0.1,0.4l-4.3-1.8l0.1-0.3c0.5,0.1,0.9,0.1,1.4-0.1c0.4-0.2,1.1-0.7,1.9-1.5l8.8-8.3l0.2,0.1l0.3,12.5c0,1.2,0.1,2,0.3,2.3
			c0.1,0.3,0.4,0.5,0.8,0.7l-0.1,0.4l-6.2-2.6l0.1-0.4l0.3,0.1c0.5,0.2,0.9,0.3,1.1,0.2c0.2,0,0.3-0.2,0.4-0.3
			c0-0.1,0.1-0.2,0.1-0.4c0-0.1,0-0.3,0-0.8L103.4,235.1z M103.3,234.3l-0.1-5.2l-3.8,3.6L103.3,234.3z M110.8,222.3l-4.5,2
			l-0.8-0.3l2.5-2.8L110.8,222.3z"/>
		<path fill="#FFFFFF" d="M127.7,242.4l-1.9,4.5l-11.8-3.6l0.1-0.4l0.4,0.1c0.4,0.1,0.7,0.1,1,0.1c0.2,0,0.4-0.2,0.5-0.4
			c0.1-0.1,0.3-0.5,0.5-1.2l2.6-8.8c0.2-0.7,0.3-1.1,0.3-1.3c0-0.2-0.1-0.4-0.3-0.6c-0.2-0.2-0.5-0.3-0.8-0.5l-0.4-0.1l0.1-0.4
			l7.1,2.1l-0.1,0.4l-0.6-0.2c-0.4-0.1-0.7-0.1-1-0.1c-0.2,0-0.4,0.2-0.5,0.3c-0.1,0.1-0.3,0.5-0.5,1.2l-2.6,8.5
			c-0.2,0.7-0.3,1.1-0.3,1.3c0,0.2,0.1,0.4,0.3,0.6c0.1,0.1,0.5,0.3,1.2,0.4l1.1,0.3c0.7,0.2,1.3,0.3,1.9,0.2s1.1-0.4,1.6-0.8
			s1.1-1.1,1.7-2.1L127.7,242.4z"/>
		<path fill="#FFFFFF" d="M130.4,233.8l7,1.7l-0.1,0.4l-0.3-0.1c-0.5-0.1-0.9-0.2-1.1-0.1s-0.4,0.2-0.5,0.4
			c-0.1,0.2-0.3,0.6-0.5,1.4l-1.6,6.6c-0.3,1.2-0.4,2-0.3,2.5c0.1,0.4,0.3,0.8,0.7,1.2c0.4,0.4,0.9,0.6,1.5,0.8
			c0.7,0.2,1.4,0.2,2-0.1c0.6-0.2,1.1-0.6,1.5-1.1c0.4-0.5,0.8-1.5,1.1-2.9l1.3-5.5c0.1-0.6,0.2-1.1,0.1-1.3
			c-0.1-0.3-0.2-0.5-0.4-0.7c-0.3-0.2-0.7-0.4-1.2-0.5l0.1-0.4l4.7,1.1l-0.1,0.4l-0.3-0.1c-0.4-0.1-0.7-0.1-1,0
			c-0.3,0.1-0.5,0.3-0.7,0.6c-0.1,0.2-0.3,0.6-0.4,1.1l-1.2,5.1c-0.4,1.6-0.8,2.7-1.1,3.4s-1,1.2-2,1.6c-1,0.4-2.1,0.4-3.5,0.1
			c-1.2-0.3-2-0.6-2.6-1.1c-0.8-0.6-1.3-1.3-1.5-2.1c-0.2-0.8-0.2-1.7,0.1-2.8l1.6-6.6c0.2-0.8,0.3-1.3,0.2-1.5s-0.2-0.4-0.3-0.6
			s-0.6-0.3-1.1-0.4L130.4,233.8z"/>
		<path fill="#FFFFFF" d="M152.4,243.9l3.8,6.9c0.5,1,1,1.6,1.5,2c0.3,0.3,0.7,0.4,1.1,0.5l-0.1,0.4l-7.1-1.2l0.1-0.4
			c0.5,0,0.8,0,0.9-0.1c0.1-0.1,0.2-0.2,0.3-0.3c0-0.3-0.2-0.9-0.7-1.8l-2.5-4.5l-0.6,0.3l-0.6,3.7c-0.1,0.7-0.2,1.2-0.1,1.4
			c0.1,0.2,0.2,0.4,0.4,0.5c0.2,0.2,0.6,0.3,1.1,0.4l-0.1,0.4l-6.9-1.2l0.1-0.4l0.5,0.1c0.4,0.1,0.7,0.1,1,0
			c0.2-0.1,0.4-0.2,0.5-0.4c0.1-0.1,0.2-0.6,0.3-1.3l1.5-9c0.1-0.7,0.2-1.1,0.1-1.3c0-0.2-0.2-0.4-0.4-0.5c-0.2-0.2-0.5-0.3-0.9-0.4
			l-0.5-0.1l0.1-0.4l6.8,1.2l-0.1,0.4c-0.5-0.1-0.8-0.1-1.1,0c-0.2,0.1-0.4,0.2-0.5,0.4c-0.1,0.2-0.2,0.6-0.3,1.3l-0.7,4.3l5.8-3.3
			c0.8-0.5,1.2-0.9,1.3-1.2c0-0.3-0.1-0.5-0.3-0.7c-0.1-0.1-0.5-0.2-1.1-0.3l0.1-0.4l5.3,0.9l-0.1,0.4c-0.5,0-0.9,0-1.2,0.1
			s-1,0.5-2.1,1.1L152.4,243.9z"/>
		<path fill="#FFFFFF" d="M167.5,240.5c2.2,0.2,3.9,1,5.1,2.5c1.2,1.5,1.7,3.3,1.5,5.4c-0.2,1.8-0.9,3.2-2.1,4.5
			c-1.6,1.6-3.6,2.3-6.1,2c-2.5-0.3-4.3-1.3-5.5-3.2c-0.9-1.5-1.3-3.1-1.1-4.9c0.2-2.1,1.1-3.7,2.7-4.9
			C163.7,240.6,165.5,240.2,167.5,240.5z M167.5,241.1c-1.3-0.1-2.3,0.4-3.1,1.6c-0.7,1-1.1,2.5-1.3,4.5c-0.3,2.4-0.1,4.1,0.6,5.4
			c0.5,0.9,1.3,1.3,2.3,1.5c0.7,0.1,1.3,0,1.8-0.3c0.6-0.4,1.2-1,1.6-1.9c0.4-0.9,0.8-2.1,0.9-3.7c0.2-1.8,0.2-3.2,0-4.2
			c-0.2-0.9-0.6-1.6-1.1-2.1C168.8,241.5,168.2,241.2,167.5,241.1z"/>
		<path fill="#FFFFFF" d="M185.3,241.9l-0.2,4.6l-0.4,0c-0.1-1.2-0.5-2.1-1.3-2.9c-0.7-0.8-1.5-1.2-2.4-1.2c-0.7,0-1.3,0.1-1.7,0.4
			s-0.7,0.8-0.7,1.2c0,0.3,0,0.6,0.2,0.8c0.2,0.3,0.5,0.7,0.9,1c0.3,0.2,1,0.7,2.1,1.3c1.6,0.9,2.6,1.7,3.1,2.5
			c0.5,0.7,0.7,1.6,0.7,2.5c-0.1,1.2-0.6,2.1-1.6,2.9c-1,0.8-2.1,1.1-3.5,1c-0.4,0-0.8-0.1-1.2-0.2c-0.4-0.1-0.9-0.3-1.4-0.6
			c-0.3-0.2-0.6-0.2-0.8-0.3c-0.2,0-0.4,0-0.6,0.2c-0.2,0.1-0.4,0.3-0.5,0.6l-0.4,0l0.4-5.2l0.4,0c0.2,1.5,0.7,2.7,1.5,3.5
			s1.7,1.3,2.7,1.4c0.8,0.1,1.4-0.1,1.9-0.5c0.5-0.4,0.7-0.9,0.8-1.4c0-0.3,0-0.7-0.2-1c-0.2-0.3-0.4-0.6-0.7-0.9
			c-0.3-0.3-0.9-0.7-1.8-1.2c-1.2-0.7-2.1-1.3-2.6-1.8c-0.5-0.5-0.9-1-1.2-1.6c-0.3-0.6-0.4-1.2-0.3-1.8c0.1-1.1,0.5-2,1.4-2.7
			c0.9-0.7,1.9-1,3.1-1c0.5,0,0.9,0.1,1.3,0.3c0.3,0.1,0.7,0.3,1.1,0.5c0.4,0.3,0.8,0.4,0.9,0.4c0.2,0,0.3,0,0.4-0.1
			c0.1-0.1,0.2-0.4,0.3-0.8L185.3,241.9z"/>
		<path fill="#FFFFFF" d="M199.2,242.7l-0.1,3.8l-0.4,0c-0.2-0.9-0.4-1.5-0.7-1.9c-0.3-0.4-0.6-0.7-1.1-0.9
			c-0.3-0.1-0.7-0.2-1.4-0.2l-1,0l-0.4,10.7c0,0.7,0,1.2,0.1,1.3s0.2,0.3,0.4,0.5c0.2,0.1,0.5,0.2,0.9,0.2l0.5,0l0,0.4l-7.3-0.2
			l0-0.4l0.5,0c0.4,0,0.7,0,1-0.2c0.2-0.1,0.3-0.2,0.4-0.5c0.1-0.2,0.1-0.6,0.2-1.3l0.4-10.7l-1,0c-0.9,0-1.6,0.1-2.1,0.5
			c-0.6,0.5-1,1.3-1.2,2.3l-0.4,0l0.1-3.8L199.2,242.7z"/>
		<path fill="#FFFFFF" d="M205.3,250.3l0.1,3.9c0,0.8,0.1,1.2,0.2,1.4c0.1,0.2,0.3,0.3,0.5,0.5c0.2,0.1,0.7,0.2,1.3,0.2l0,0.4
			l-7.1,0.1l0-0.4c0.6,0,1.1-0.1,1.3-0.2c0.2-0.1,0.4-0.3,0.5-0.5c0.1-0.2,0.1-0.7,0.1-1.4l-0.1-9c0-0.8-0.1-1.2-0.2-1.4
			c-0.1-0.2-0.3-0.3-0.5-0.5c-0.2-0.1-0.7-0.2-1.3-0.2l0-0.4l6.5-0.1c1.7,0,2.9,0.1,3.7,0.3c0.8,0.2,1.4,0.6,1.9,1.3
			c0.5,0.6,0.8,1.3,0.8,2.2c0,1-0.3,1.9-1.1,2.6c-0.5,0.4-1.1,0.8-2,1l3.4,4.7c0.4,0.6,0.8,1,0.9,1.1c0.3,0.2,0.6,0.3,1,0.3l0,0.4
			l-4.4,0.1l-4.6-6.3L205.3,250.3z M205.3,243.5l0.1,6.1l0.6,0c0.9,0,1.7-0.1,2.1-0.3c0.5-0.2,0.8-0.5,1.1-1
			c0.3-0.5,0.4-1.1,0.4-1.8c0-1.1-0.3-1.8-0.8-2.3c-0.5-0.5-1.3-0.7-2.4-0.7L205.3,243.5z"/>
		<path fill="#FFFFFF" d="M220.7,243.2l0.3,5.7l0.3,0c0.9,0,1.5-0.3,1.9-0.9c0.4-0.6,0.6-1.4,0.6-2.5l0.4,0l0.3,7.3l-0.4,0
			c-0.1-0.8-0.3-1.4-0.6-1.9c-0.3-0.5-0.6-0.8-1-1c-0.4-0.2-0.9-0.2-1.5-0.2l0.2,3.9c0,0.8,0.1,1.2,0.2,1.4c0.1,0.2,0.2,0.3,0.4,0.4
			c0.2,0.1,0.5,0.1,0.9,0.1l0.8,0c1.3-0.1,2.3-0.4,3.1-1c0.8-0.6,1.3-1.6,1.6-2.8l0.4,0L228,256l-12,0.5l0-0.4l0.5,0
			c0.4,0,0.7-0.1,1-0.3c0.2-0.1,0.3-0.3,0.4-0.5c0.1-0.2,0.1-0.6,0.1-1.3l-0.4-9.1c0-0.6-0.1-1-0.1-1.2c-0.1-0.2-0.2-0.4-0.4-0.5
			c-0.3-0.2-0.6-0.3-1.1-0.2l-0.5,0l0-0.4l11.6-0.5l0.2,4.1l-0.4,0c-0.2-1-0.6-1.7-0.9-2.1c-0.4-0.4-0.9-0.7-1.6-0.9
			c-0.4-0.1-1.1-0.1-2.2-0.1L220.7,243.2z"/>
		<path fill="#FFFFFF" d="M242.1,250l-0.1,4.9l-12.3,1l0-0.4l0.5,0c0.4,0,0.7-0.1,1-0.3c0.2-0.1,0.3-0.3,0.4-0.5
			c0.1-0.2,0.1-0.6,0-1.3l-0.8-9.1c-0.1-0.7-0.1-1.1-0.2-1.3c-0.1-0.2-0.3-0.3-0.5-0.4c-0.2-0.1-0.6-0.2-0.9-0.1l-0.5,0l0-0.4
			l7.4-0.6l0,0.4l-0.6,0.1c-0.4,0-0.7,0.1-1,0.3c-0.2,0.1-0.3,0.3-0.4,0.5c-0.1,0.2-0.1,0.6,0,1.3l0.7,8.8c0.1,0.7,0.1,1.2,0.2,1.3
			c0.1,0.2,0.3,0.3,0.5,0.4c0.2,0,0.6,0,1.2,0l1.2-0.1c0.7-0.1,1.3-0.2,1.8-0.5c0.5-0.3,0.9-0.7,1.2-1.3s0.6-1.4,0.8-2.6L242.1,250z
			"/>
		<path fill="#FFFFFF" d="M247.5,241l0.7,5.6l0.3,0c0.9-0.1,1.5-0.5,1.8-1.1c0.3-0.6,0.5-1.4,0.4-2.5l0.4,0l0.9,7.2l-0.4,0.1
			c-0.2-0.8-0.4-1.4-0.8-1.9s-0.7-0.8-1-0.9s-0.9-0.1-1.5-0.1l0.5,3.9c0.1,0.8,0.2,1.2,0.3,1.4c0.1,0.2,0.2,0.3,0.4,0.4
			c0.2,0.1,0.5,0.1,0.9,0.1l0.8-0.1c1.3-0.2,2.3-0.6,3-1.3c0.7-0.7,1.1-1.7,1.3-2.9l0.4,0l0,4.5l-11.9,1.6l0-0.4l0.5-0.1
			c0.4-0.1,0.7-0.2,0.9-0.3c0.2-0.1,0.3-0.3,0.3-0.5c0.1-0.2,0-0.6-0.1-1.3l-1.2-9.1c-0.1-0.6-0.1-1-0.2-1.1
			c-0.1-0.2-0.2-0.4-0.4-0.5c-0.3-0.2-0.6-0.2-1.1-0.1l-0.5,0.1l0-0.4l11.5-1.5l0.5,4.1l-0.4,0c-0.3-1-0.7-1.7-1.1-2
			c-0.4-0.4-1-0.6-1.6-0.8c-0.4-0.1-1.1,0-2.2,0.1L247.5,241z"/>
		<path fill="#FFFFFF" d="M268.8,236.4l0.9,4.7l-0.4,0.1c-0.5-1.2-1.2-2-2.2-2.5c-0.9-0.5-1.9-0.7-2.9-0.5c-0.9,0.2-1.6,0.5-2.2,1.2
			c-0.6,0.6-1,1.4-1.2,2.2c-0.2,1.1-0.2,2.3,0,3.5c0.2,1.2,0.6,2.3,1.1,3.3c0.5,0.9,1.1,1.6,1.9,2c0.8,0.4,1.7,0.5,2.7,0.3
			c0.9-0.2,1.6-0.5,2.3-1c0.6-0.5,1.3-1.3,1.9-2.4l0.2,1.2c-0.6,0.9-1.3,1.7-2.1,2.2s-1.7,0.9-2.8,1.1c-1.5,0.3-2.8,0.2-4-0.2
			s-2.3-1.1-3.1-2c-0.8-1-1.3-2.1-1.6-3.3c-0.2-1.3-0.1-2.6,0.3-3.9s1.2-2.4,2.3-3.2c1-0.9,2.2-1.4,3.5-1.6c1-0.2,2-0.2,3.2,0.1
			c0.7,0.1,1.1,0.2,1.2,0.1c0.2,0,0.4-0.2,0.5-0.3c0.1-0.2,0.2-0.5,0.2-0.8L268.8,236.4z"/>
		<path fill="#FFFFFF" d="M279.4,239.7l6.2,4.8c0.9,0.7,1.6,1.1,2.2,1.3c0.4,0.1,0.8,0.1,1.2,0l0.1,0.4l-7,1.8l-0.1-0.4
			c0.4-0.2,0.7-0.3,0.8-0.4s0.1-0.3,0.1-0.4c-0.1-0.3-0.5-0.7-1.3-1.3l-4.1-3.1l-0.4,0.5l0.9,3.7c0.2,0.7,0.3,1.1,0.4,1.3
			c0.1,0.2,0.3,0.3,0.6,0.3c0.3,0.1,0.6,0,1.1-0.1l0.1,0.4l-6.8,1.7l-0.1-0.4l0.4-0.1c0.4-0.1,0.7-0.2,0.9-0.4
			c0.1-0.1,0.2-0.3,0.3-0.6c0-0.2,0-0.6-0.2-1.3l-2.2-8.9c-0.2-0.7-0.3-1.1-0.4-1.3s-0.3-0.3-0.6-0.3c-0.3-0.1-0.6-0.1-0.9,0
			l-0.4,0.1l-0.1-0.4l6.7-1.7l0.1,0.4c-0.5,0.1-0.8,0.3-1,0.5c-0.1,0.1-0.2,0.3-0.3,0.6c0,0.2,0,0.6,0.2,1.3l1,4.2l4-5.3
			c0.6-0.7,0.8-1.3,0.7-1.6c-0.1-0.3-0.3-0.4-0.6-0.5c-0.2,0-0.5,0-1.1,0.1l-0.1-0.4l5.3-1.3l0.1,0.4c-0.5,0.2-0.8,0.3-1,0.5
			s-0.7,0.8-1.5,1.8L279.4,239.7z"/>
		<path fill="#FFFFFF" d="M297.2,239.2l-4.7,1.6l-0.1,1.5c0,0.5,0,0.9,0.1,1.2c0.1,0.4,0.4,0.6,0.7,0.7c0.2,0,0.7,0,1.4-0.2l0.1,0.4
			l-4.4,1.5l-0.1-0.4c0.4-0.2,0.8-0.6,1-1c0.2-0.4,0.4-1.2,0.5-2.4l1.2-12.1l0.2-0.1l8.4,9.2c0.8,0.9,1.4,1.4,1.8,1.6
			c0.3,0.1,0.6,0.1,1.1,0l0.1,0.4l-6.4,2.1l-0.1-0.4l0.3-0.1c0.5-0.2,0.8-0.4,1-0.6c0.1-0.2,0.1-0.3,0.1-0.5c0-0.1-0.1-0.2-0.2-0.3
			c0-0.1-0.2-0.3-0.5-0.6L297.2,239.2z M294.4,224.7l-2.1,4.4l-0.8,0.3l0-3.8L294.4,224.7z M296.7,238.6l-3.5-3.9l-0.5,5.2
			L296.7,238.6z"/>
		<path fill="#FFFFFF" d="M316.7,231.5l-4.5,2l0,1.5c0,0.5,0.1,0.9,0.2,1.1c0.2,0.4,0.4,0.5,0.8,0.6c0.2,0,0.7-0.1,1.3-0.3l0.2,0.3
			l-4.2,1.9l-0.2-0.3c0.4-0.3,0.7-0.6,0.9-1.1c0.2-0.4,0.2-1.2,0.2-2.4l-0.1-12.2l0.2-0.1l9.3,8.3c0.9,0.8,1.5,1.2,1.9,1.4
			c0.3,0.1,0.6,0.1,1-0.1l0.2,0.3l-6.1,2.8l-0.2-0.3l0.3-0.1c0.5-0.2,0.8-0.5,0.9-0.7c0.1-0.2,0.1-0.3,0-0.5
			c-0.1-0.1-0.1-0.2-0.2-0.3c0,0-0.2-0.2-0.6-0.6L316.7,231.5z M316,230.9l-3.9-3.5l0.1,5.2L316,230.9z"/>
		<path fill="#FFFFFF" d="M326.4,214.8l2.4,4l-0.4,0.2c-0.7-0.9-1.6-1.5-2.6-1.7c-1-0.2-1.9-0.1-2.7,0.3c-0.6,0.3-1,0.8-1.2,1.3
			c-0.2,0.5-0.1,1,0.1,1.4c0.2,0.3,0.3,0.5,0.6,0.6c0.3,0.2,0.8,0.3,1.3,0.4c0.4,0,1.2,0,2.5,0c1.8-0.1,3.1,0,4,0.4
			c0.8,0.3,1.5,0.9,1.9,1.7c0.6,1,0.7,2.1,0.3,3.3c-0.4,1.2-1.2,2.1-2.4,2.8c-0.4,0.2-0.8,0.4-1.1,0.5c-0.4,0.1-0.9,0.2-1.5,0.3
			c-0.4,0-0.6,0.1-0.8,0.2c-0.2,0.1-0.3,0.2-0.4,0.5c-0.1,0.2-0.1,0.5-0.1,0.8l-0.3,0.2l-2.6-4.6l0.3-0.2c1,1.1,2,1.8,3.2,2.1
			c1.1,0.3,2.1,0.1,3-0.3c0.7-0.4,1.1-0.9,1.3-1.4c0.2-0.6,0.2-1.1-0.1-1.6c-0.2-0.3-0.4-0.5-0.7-0.7c-0.3-0.2-0.7-0.3-1.1-0.4
			c-0.4-0.1-1.2-0.1-2.2,0c-1.4,0.1-2.5,0.1-3.2-0.1c-0.7-0.1-1.3-0.3-1.8-0.7c-0.5-0.3-0.9-0.8-1.3-1.3c-0.5-1-0.6-2-0.3-3.1
			c0.3-1.1,1-1.9,2.1-2.5c0.4-0.2,0.8-0.4,1.2-0.5c0.3-0.1,0.7-0.1,1.2-0.2c0.5,0,0.8-0.1,1-0.2c0.2-0.1,0.3-0.2,0.3-0.3
			s0-0.4-0.1-0.8L326.4,214.8z"/>
		<path fill="#FFFFFF" d="M334.3,209.9c1.8-1.3,3.6-1.8,5.5-1.5c1.9,0.4,3.5,1.4,4.6,3.1c1,1.5,1.4,3,1.4,4.7
			c-0.1,2.2-1.2,4.1-3.3,5.5c-2.1,1.4-4.1,1.8-6.2,1.2c-1.6-0.5-3-1.5-4-3c-1.2-1.7-1.6-3.5-1.2-5.5S332.6,210.9,334.3,209.9z
			 M334.8,210.3c-1,0.7-1.5,1.8-1.3,3.2c0.2,1.2,0.8,2.6,1.9,4.2c1.3,2,2.7,3.2,4,3.6c0.9,0.3,1.8,0.2,2.7-0.4
			c0.6-0.4,1-0.9,1.2-1.4c0.2-0.7,0.2-1.5,0-2.5s-0.8-2.1-1.7-3.4c-1-1.5-2-2.6-2.8-3.1s-1.5-0.8-2.2-0.9
			C335.9,209.7,335.3,209.9,334.8,210.3z"/>
		<path fill="#FFFFFF" d="M351.1,196.3l3.1,3.6l-0.3,0.3c-1-0.8-2.1-1.1-3.2-1.1c-1.1,0-2,0.4-2.8,1.1c-0.7,0.6-1.1,1.3-1.3,2.1
			s-0.2,1.7,0.1,2.5c0.3,1.1,0.9,2.1,1.8,3c0.8,0.9,1.7,1.7,2.6,2.3c0.9,0.6,1.8,0.8,2.6,0.8s1.7-0.4,2.5-1.1c0.7-0.6,1.1-1.2,1.4-2
			c0.3-0.8,0.5-1.8,0.5-3l0.8,0.9c-0.1,1.1-0.3,2.1-0.7,2.9s-1,1.6-1.9,2.3c-1.1,1-2.3,1.6-3.6,1.9c-1.3,0.3-2.5,0.2-3.7-0.2
			c-1.2-0.4-2.2-1.1-3-2.1c-0.9-1-1.4-2.2-1.7-3.5s-0.1-2.7,0.3-3.9c0.5-1.3,1.2-2.3,2.2-3.2c0.7-0.6,1.7-1.2,2.8-1.5
			c0.6-0.2,1-0.4,1.1-0.5c0.2-0.1,0.3-0.3,0.3-0.6s-0.1-0.5-0.3-0.8L351.1,196.3z"/>
		<path fill="#FFFFFF" d="M366.7,200l0.3,0.3l-5.1,5.2l-0.3-0.3l0.3-0.3c0.3-0.3,0.5-0.6,0.5-0.8c0.1-0.2,0-0.4-0.1-0.6
			c-0.1-0.2-0.3-0.5-0.8-1l-6.6-6.4c-0.5-0.5-0.9-0.8-1-0.8s-0.4-0.1-0.7,0c-0.3,0.1-0.5,0.2-0.8,0.5l-0.3,0.3l-0.3-0.3l5.1-5.2
			l0.3,0.3l-0.3,0.3c-0.3,0.3-0.5,0.6-0.5,0.8c-0.1,0.2,0,0.4,0.1,0.6c0.1,0.2,0.3,0.5,0.8,1l6.6,6.4c0.5,0.5,0.9,0.8,1,0.8
			c0.2,0.1,0.4,0.1,0.7,0s0.5-0.2,0.8-0.5L366.7,200z"/>
		<path fill="#FFFFFF" d="M360.5,179.1l0.6,4.9l-0.6,0.7l-2-3.2L360.5,179.1z M370.7,189.8l-3.1,3.8l0.7,1.3
			c0.2,0.4,0.5,0.7,0.7,0.9c0.3,0.2,0.6,0.3,1,0.2c0.2-0.1,0.5-0.4,1-0.9l0.3,0.2l-2.9,3.6l-0.3-0.2c0.3-0.4,0.4-0.9,0.3-1.3
			c-0.1-0.5-0.4-1.2-0.9-2.2l-5.5-10.8l0.1-0.2l12,3.3c1.1,0.3,1.9,0.4,2.3,0.4c0.3,0,0.6-0.2,0.9-0.5l0.3,0.2l-4.2,5.2l-0.3-0.2
			l0.2-0.2c0.3-0.4,0.5-0.8,0.5-1c0-0.2-0.1-0.3-0.2-0.5c-0.1-0.1-0.2-0.1-0.3-0.2c-0.1,0-0.3-0.1-0.8-0.2L370.7,189.8z
			 M369.9,189.6l-5-1.4l2.4,4.7L369.9,189.6z"/>
		<path fill="#FFFFFF" d="M373.2,168.1l4.1,2.6l-0.2,0.3c-1.2-0.4-2.3-0.5-3.3-0.1c-1,0.3-1.8,0.9-2.4,1.8c-0.5,0.7-0.7,1.5-0.7,2.4
			c0,0.9,0.3,1.7,0.8,2.4c0.6,0.9,1.5,1.7,2.6,2.4c1,0.7,2.1,1.2,3.1,1.4c1,0.3,1.9,0.3,2.7,0c0.8-0.3,1.5-0.9,2.1-1.8
			c0.5-0.7,0.7-1.5,0.8-2.3s-0.1-1.8-0.4-3l1,0.6c0.3,1.1,0.3,2.1,0.2,3s-0.5,1.8-1.1,2.8c-0.8,1.2-1.8,2.2-2.9,2.8
			c-1.1,0.6-2.3,0.9-3.6,0.9c-1.3-0.1-2.4-0.5-3.5-1.1c-1.1-0.7-2-1.7-2.6-2.9s-0.9-2.5-0.8-3.9c0.1-1.3,0.5-2.6,1.2-3.7
			c0.5-0.8,1.3-1.6,2.2-2.3c0.5-0.4,0.9-0.7,1-0.8c0.1-0.2,0.2-0.4,0.1-0.6c0-0.2-0.2-0.4-0.5-0.7L373.2,168.1z"/>
		<path fill="#FFFFFF" d="M389.2,167.1l0.3,0.2l-3.3,6.5l-0.3-0.2l0.2-0.4c0.2-0.4,0.3-0.7,0.3-1c0-0.2-0.1-0.4-0.2-0.6
			c-0.1-0.1-0.5-0.4-1.1-0.7l-8.1-4.2c-0.6-0.3-1-0.5-1.2-0.5s-0.4,0-0.6,0.2c-0.2,0.1-0.4,0.4-0.6,0.7l-0.2,0.4l-0.3-0.2l3.3-6.5
			l0.3,0.2l-0.2,0.4c-0.2,0.4-0.3,0.7-0.3,1c0,0.2,0.1,0.4,0.2,0.6c0.1,0.1,0.5,0.4,1.1,0.7l8.1,4.2c0.6,0.3,1,0.5,1.2,0.5
			c0.2,0,0.4-0.1,0.6-0.2s0.4-0.4,0.6-0.7L389.2,167.1z"/>
		<path fill="#FFFFFF" d="M390,156.2l-1.8,4.6l1,1c0.3,0.3,0.7,0.6,0.9,0.7c0.4,0.1,0.7,0.1,1-0.1c0.2-0.1,0.4-0.5,0.7-1.2l0.4,0.1
			l-1.7,4.3l-0.4-0.1c0.1-0.5,0.1-0.9-0.1-1.4c-0.2-0.4-0.7-1-1.5-1.9l-8.5-8.7l0.1-0.2l12.4-0.5c1.2,0,2-0.2,2.3-0.3
			c0.3-0.1,0.5-0.4,0.7-0.8l0.4,0.1l-2.5,6.3l-0.4-0.1l0.1-0.3c0.2-0.5,0.3-0.9,0.2-1.1c0-0.2-0.2-0.3-0.4-0.4
			c-0.1,0-0.2-0.1-0.4-0.1c-0.1,0-0.3,0-0.8,0L390,156.2z M389.2,156.2l-5.2,0.2l3.7,3.7L389.2,156.2z"/>
	</g>
	<path fill="#FDCD1D" d="M205.4,0C91.9,0,0,60.8,0,135.7s91.9,135.7,205.4,135.7s205.4-60.8,205.4-135.7S318.8,0,205.4,0z
		 M205.4,266.2c-109,0-197.3-58.4-197.3-130.4S96.4,5.3,205.4,5.3s197.3,58.4,197.3,130.4S314.3,266.2,205.4,266.2z"/>
	<g>
		<polygon fill="#FEED09" points="89.2,67.4 77.9,66.3 73.4,76.7 70.9,65.6 59.6,64.5 69.4,58.8 66.9,47.7 75.5,55.2 85.3,49.5 
			80.7,59.9 		"/>
		<polygon fill="#FEED09" points="118.7,52.3 107.5,50.2 102.1,60.1 100.6,48.9 89.5,46.7 99.8,41.9 98.3,30.6 106.1,38.9 
			116.4,34.1 110.9,44 		"/>
		<polygon fill="#FEED09" points="149.3,42.6 138.6,38.7 131.6,47.7 132,36.3 121.3,32.4 132.3,29.3 132.7,17.9 139,27.4 150,24.3 
			143,33.2 		"/>
		<polygon fill="#FEED09" points="180.8,37.3 170.8,31.9 162.6,39.8 164.6,28.6 154.6,23.2 165.9,21.7 167.9,10.5 172.8,20.7 
			184.1,19.2 175.9,27.1 		"/>
		<polygon fill="#FEED09" points="215.1,36.3 205.9,29.6 196.7,36.2 200.2,25.4 191,18.7 202.4,18.8 205.9,8 209.4,18.8 220.8,18.8 
			211.6,25.5 		"/>
		<polygon fill="#FEED09" points="246.7,39.8 238.4,32 228.4,37.4 233.3,27.1 225.1,19.3 236.3,20.8 241.2,10.5 243.3,21.7 
			254.6,23.2 244.6,28.6 		"/>
		<polygon fill="#FEED09" points="277.8,47.2 270.7,38.3 260.1,42.2 266.4,32.8 259.4,23.8 270.3,26.9 276.6,17.5 277,28.9 288,32 
			277.3,35.9 		"/>
		<polygon fill="#FEED09" points="336.6,75.9 331.9,65.6 320.6,66.8 329,59.1 324.4,48.8 334.3,54.4 342.7,46.8 340.3,57.9 
			350.2,63.6 338.9,64.8 		"/>
		<polygon fill="#FEED09" points="307.8,59.8 302.3,49.9 291.1,52.1 298.8,43.7 293.3,33.8 303.6,38.6 311.3,30.2 310,41.5 
			320.3,46.2 309.2,48.5 		"/>
	</g>
	<g>
		<path fill="#FFFFFF" d="M183.8,202.8v-1c2.1-0.6,3.5-1.2,4.3-1.7c0.8-0.5,1.5-1.3,2.1-2.4c0.6-1.1,0.9-2.1,0.9-3.2
			c0-1.5-0.6-2.8-1.7-3.9c-1.1-1.1-2.5-1.6-4.1-1.6c-2.5,0-4.7,1.3-6.5,4l-1-0.4c1.3-3,3-5.3,5-6.9s4.3-2.3,6.8-2.3
			c2.6,0,4.7,0.8,6.3,2.3s2.5,3.4,2.5,5.5c0,1.4-0.4,2.7-1.2,3.9s-2,2.4-3.6,3.3c2.1,1,3.8,2.3,4.9,3.8c1.1,1.5,1.7,3.4,1.7,5.7
			c0,3.9-1.4,7.1-4.2,9.8s-6.5,4.1-11.2,4.1c-3.1,0-5.4-0.5-6.9-1.6c-1-0.7-1.6-1.7-1.6-2.8c0-0.8,0.3-1.6,0.9-2.1
			c0.6-0.6,1.3-0.9,2.1-0.9c0.6,0,1.2,0.1,1.7,0.4c0.3,0.1,1.3,0.9,3.1,2.4c1.8,1.4,3.4,2.2,5,2.2c1.3,0,2.5-0.5,3.5-1.6
			c1-1.1,1.4-2.4,1.4-4.1c0-2.5-0.9-4.8-2.6-6.9C189.7,205,187.2,203.6,183.8,202.8z"/>
		<path fill="#FFFFFF" d="M202.3,221.4v-1h1.2c1.1,0,1.9-0.2,2.5-0.5s1-0.8,1.3-1.4c0.2-0.4,0.2-1.5,0.2-3.4v-24.4
			c0-1.9-0.1-3.1-0.3-3.6c-0.2-0.5-0.6-0.9-1.2-1.2c-0.6-0.4-1.4-0.5-2.5-0.5h-1.2v-1h16.6c4.4,0,8,0.6,10.7,1.8
			c3.3,1.5,5.8,3.7,7.5,6.7c1.7,3,2.6,6.4,2.6,10.1c0,2.6-0.4,5-1.3,7.2c-0.8,2.2-1.9,4-3.3,5.4c-1.3,1.4-2.9,2.6-4.6,3.4
			c-1.7,0.9-3.9,1.5-6.4,2c-1.1,0.2-2.9,0.3-5.2,0.3H202.3z M216.4,186.4v28.9c0,1.5,0.1,2.5,0.2,2.8s0.4,0.6,0.7,0.8
			c0.5,0.3,1.2,0.4,2.1,0.4c3,0,5.4-1,7-3.1c2.2-2.8,3.3-7.2,3.3-13.1c0-4.8-0.7-8.5-2.2-11.4c-1.2-2.2-2.7-3.7-4.6-4.5
			C221.7,186.7,219.5,186.4,216.4,186.4z"/>
	</g>
	<polygon fill="#FFFFFF" points="226.3,134.5 212.8,134.5 212.8,123.7 222.4,123.7 222.4,116.2 212.8,116.2 212.8,106.5 
		204.1,106.5 204.1,116.2 194.6,116.2 194.6,123.7 204.1,123.7 204.1,134.5 190.7,134.5 190.7,143 204.1,143 204.1,155 212.8,155 
		212.8,143 226.3,143 	"/>
	<path fill="#FFFFFF" d="M289.9,174.9c-7.3-6.6-21-13.3-45.2-7.9l0.1,0.5c-9-9.9-22.2-15.4-36.9-14.7c-12.8,0.6-24.2,5.8-31.9,14.1
		c-23.6-5.1-37.2,1.5-44.4,8.1c-8.7,7.9-10.9,17.8-10,24.4l3.3-0.4c-0.9-7.3,2.6-15.8,9-21.6c6.5-5.9,18.5-11.8,39.7-7.6
		c-3.1,4.1-5.4,8.7-6.7,13.8l3.2,0.8c4.7-18.5,22.4-27.5,38-28.2c15.7-0.7,35.3,6.4,43,28.4l3.1-1.1c-1.8-5-4.2-9.5-7.4-13.5
		c21.9-4.6,34.3,1.5,40.8,7.4c6.4,5.8,9.9,14.2,9,21.6l3.3,0.4C300.7,192.6,298.5,182.7,289.9,174.9z"/>
	<g>
		<polyline fill="none" stroke="#FFFFFF" stroke-width="3" stroke-miterlimit="10" points="50.3,154 55.6,153.2 57.8,150.3 
			61.8,149.9 62.4,145.5 63.1,144.3 65.7,142.1 70.7,142.1 73.8,143.4 74.8,144.9 78.3,145.5 81.1,144.4 85.6,143.1 88.3,143.2 
			91,141.7 93.7,138.7 95.9,136.2 99.7,134.7 102.7,134.2 106.3,133.6 112.3,131.9 115.8,131 120.5,130.6 121.5,126.2 122.9,124.2 
			124.8,122.1 127.4,121.3 129.9,120.3 131.6,118.5 133.1,117.5 133.1,114.2 135.4,111.9 140.2,111.9 142.4,110.3 142.4,108.2 
			144.5,107.1 150.9,107.1 151.3,105 152.3,103.3 153.8,101.5 154.6,99.5 157.8,99.5 161.1,98.2 164.9,98.2 168.1,96.8 170.8,94.3 
			173.7,90.7 174.9,88.4 177.5,82.2 182.3,81.5 181.8,79.4 184.2,79.4 184.2,77.1 184.2,75.7 186.3,75 187,72 186.3,69.7 187,67.7 
			188.1,65.9 188.1,63.6 188.5,61 187.8,59.2 187.8,56.1 187.8,54.5 190.7,56.9 195.9,58.3 199.8,60.9 202.1,62.4 206.6,63.4 
			208.9,64.3 212.2,66.1 216.3,68.2 220.4,70.4 222.8,71 224.9,72.3 227.3,73.9 228.2,75.1 231.2,76.2 232.3,77.9 234.4,79.2 
			236.9,80.1 238.4,81 243.3,81.9 244.7,83 247.9,84.9 251.4,86.5 256,87.7 261.3,89.5 266.3,90.7 271.6,91.9 277.3,93.1 
			281.8,94.5 288.3,95.7 291.5,96.5 293.8,97.9 295.4,99.1 296.3,100.4 298.5,100.5 301.8,101.7 303.2,103 305.7,104.3 308.5,105.6 
			311.4,106 314.6,109.4 316.5,110.2 319.3,112.7 324.6,113.6 329.6,113.5 333.3,114.3 338.8,118.5 342.8,120.4 346.4,122 
			350.2,123.7 353.8,125.6 357.7,127.2 361.8,130.3 366.7,134.2 369.8,135.7 372.4,137.7 375.1,138.3 377.4,138.4 		"/>
		<polyline fill="none" stroke="#FFFFFF" stroke-width="2" stroke-miterlimit="10" points="233.5,114.1 234.8,111.4 236.2,109 
			236.2,107 235.5,103.2 234.8,101.2 234.2,100.3 234.8,97.9 234.8,96 233,93.5 231.3,91.3 228,87.4 223.6,82.3 221.2,80 
			218.5,77.2 215.3,75.3 213.2,73.9 210.1,73 207.2,71.1 205.4,69.8 204.7,68 202.2,66.8 200.8,65.5 198.8,63.8 197.4,61.4 
			194.3,58.5 187.8,54.5 		"/>
	</g>
</g>
</svg>
